<svg width="118" height="118" viewBox="0 0 118 118" fill="none" xmlns="http://www.w3.org/2000/svg">
<g filter="url(#filter0_d_2220_1103)">
<path d="M53.0864 13.4907C56.2596 10.0078 61.7404 10.0078 64.9136 13.4907L65.8987 14.5718C68.0037 16.8822 71.2615 17.7552 74.2397 16.8068L75.6333 16.363C80.1228 14.9334 84.8694 17.6738 85.876 22.2766L86.1885 23.7055C86.8563 26.7588 89.2412 29.1437 92.2946 29.8115L93.7234 30.124C98.3262 31.1306 101.067 35.8772 99.637 40.3667L99.1932 41.7603C98.2448 44.7385 99.1178 47.9963 101.428 50.1013L102.509 51.0864C105.992 54.2596 105.992 59.7404 102.509 62.9136L101.428 63.8987C99.1178 66.0037 98.2448 69.2615 99.1932 72.2397L99.637 73.6333C101.067 78.1228 98.3262 82.8694 93.7234 83.876L92.2945 84.1885C89.2412 84.8563 86.8563 87.2412 86.1885 90.2946L85.876 91.7234C84.8694 96.3262 80.1228 99.0666 75.6333 97.637L74.2397 97.1932C71.2615 96.2448 68.0037 97.1178 65.8987 99.4282L64.9136 100.509C61.7404 103.992 56.2596 103.992 53.0864 100.509L52.1013 99.4282C49.9963 97.1178 46.7385 96.2448 43.7603 97.1932L42.3667 97.637C37.8772 99.0666 33.1306 96.3262 32.124 91.7234L31.8115 90.2945C31.1437 87.2412 28.7588 84.8563 25.7054 84.1885L24.2766 83.876C19.6738 82.8694 16.9334 78.1228 18.363 73.6333L18.8068 72.2397C19.7552 69.2615 18.8822 66.0037 16.5718 63.8987L15.4907 62.9136C12.0078 59.7404 12.0078 54.2596 15.4907 51.0864L16.5718 50.1013C18.8822 47.9963 19.7552 44.7385 18.8068 41.7603L18.363 40.3667C16.9334 35.8772 19.6738 31.1306 24.2766 30.124L25.7055 29.8115C28.7588 29.1437 31.1437 26.7588 31.8115 23.7054L32.124 22.2766C33.1306 17.6738 37.8772 14.9334 42.3667 16.363L43.7603 16.8068C46.7385 17.7552 49.9963 16.8822 52.1013 14.5718L53.0864 13.4907Z" fill="white"/>
<path d="M64.4203 15.9188L65.8987 14.5718L64.4203 15.9188C67.0515 18.8068 71.1238 19.898 74.8465 18.7125L76.2402 18.2687C79.6073 17.1965 83.1672 19.2518 83.9222 22.7039L84.2347 24.1328C85.0694 27.9495 88.0505 30.9306 91.8672 31.7653L93.2961 32.0778C96.7482 32.8328 98.8035 36.3927 97.7313 39.7598L97.2875 41.1535C96.102 44.8762 97.1932 48.9485 100.081 51.5797L101.162 52.5648C103.775 54.9447 103.775 59.0553 101.162 61.4352L100.081 62.4203C97.1932 65.0515 96.102 69.1238 97.2875 72.8465L97.7313 74.2402C98.8035 77.6073 96.7482 81.1672 93.2961 81.9222L91.8672 82.2347C88.0505 83.0694 85.0694 86.0505 84.2347 89.8672L83.9222 91.2961C83.1672 94.7482 79.6073 96.8035 76.2402 95.7313L74.8465 95.2875C71.1238 94.102 67.0515 95.1932 64.4203 98.0812L63.4352 99.1624C61.0553 101.775 56.9447 101.775 54.5648 99.1624L53.5797 98.0812C50.9485 95.1932 46.8762 94.102 43.1535 95.2875L41.7598 95.7313C38.3927 96.8035 34.8328 94.7482 34.0778 91.2961L33.7653 89.8672C32.9306 86.0505 29.9495 83.0694 26.1328 82.2347L24.7039 81.9222C21.2518 81.1672 19.1965 77.6073 20.2687 74.2402L20.7125 72.8465C21.898 69.1238 20.8068 65.0515 17.9188 62.4203L16.6289 63.836L17.9188 62.4203L16.8376 61.4352C14.2255 59.0553 14.2255 54.9447 16.8376 52.5648L17.9188 51.5797L16.5718 50.1013L17.9188 51.5797C20.8068 48.9485 21.898 44.8762 20.7125 41.1535L20.2687 39.7598C19.1965 36.3927 21.2518 32.8328 24.7039 32.0778L26.1328 31.7653C29.9495 30.9306 32.9306 27.9495 33.7653 24.1328L34.0778 22.7039C34.8328 19.2518 38.3927 17.1965 41.7598 18.2687L43.1535 18.7125C46.8762 19.898 50.9485 18.8068 53.5797 15.9188L52.164 14.6289L53.5797 15.9188L54.5648 14.8376C56.9447 12.2255 61.0553 12.2255 63.4352 14.8376L64.4203 15.9188Z" stroke="#153587" stroke-width="4"/>
</g>
<path d="M72.0601 65.1775C72.7987 58.0783 72.7987 50.9217 72.0601 43.8225C71.829 41.602 69.2688 40.4772 67.4771 41.8091L60.6377 46.8931C58.4817 48.4957 55.8668 49.3611 53.1805 49.3611H46.7985C45.878 49.3611 45.1318 50.1073 45.1318 51.0278V57.9722C45.1318 58.8927 45.878 59.6389 46.7985 59.6389L53.1805 59.6389C55.8668 59.6389 58.4817 60.5043 60.6377 62.1069L67.4771 67.191C69.2688 68.5228 71.829 67.398 72.0601 65.1775Z" fill="#153587"/>
<path d="M54.1542 63.3367C54.2499 62.9626 54.1674 62.5652 53.9306 62.2602C53.6938 61.9552 53.3294 61.7767 52.9432 61.7767L49.6099 61.7767C49.1364 61.7767 48.7036 62.0442 48.4919 62.4677L46.8252 65.801C46.5406 66.3703 46.7291 67.0625 47.2631 67.4088L50.8197 69.7154C51.1574 69.9344 51.5798 69.9775 51.9547 69.831C52.3296 69.6845 52.611 69.3665 52.7108 68.9766L54.1542 63.3367Z" fill="#153587"/>
<defs>
<filter id="filter0_d_2220_1103" x="0.878906" y="0.87854" width="116.242" height="116.243" filterUnits="userSpaceOnUse" color-interpolation-filters="sRGB">
<feFlood flood-opacity="0" result="BackgroundImageFix"/>
<feColorMatrix in="SourceAlpha" type="matrix" values="0 0 0 0 0 0 0 0 0 0 0 0 0 0 0 0 0 0 127 0" result="hardAlpha"/>
<feOffset dy="2"/>
<feGaussianBlur stdDeviation="6"/>
<feComposite in2="hardAlpha" operator="out"/>
<feColorMatrix type="matrix" values="0 0 0 0 0 0 0 0 0 0 0 0 0 0 0 0 0 0 0.3 0"/>
<feBlend mode="normal" in2="BackgroundImageFix" result="effect1_dropShadow_2220_1103"/>
<feBlend mode="normal" in="SourceGraphic" in2="effect1_dropShadow_2220_1103" result="shape"/>
</filter>
</defs>
</svg>
