<svg width="97" height="61" viewBox="0 0 97 61" fill="none" xmlns="http://www.w3.org/2000/svg">
<path d="M68.3215 39.0078C61.9437 37.8612 56.4854 34.8549 52.8259 30.8753C49.1659 26.895 47.27 21.8905 48.1812 16.8222C49.0923 11.754 52.6126 7.72317 57.4298 5.26698C62.2462 2.81119 68.4099 1.89429 74.7877 3.0409C81.1655 4.18752 86.6239 7.19384 90.2833 11.1734C93.9434 15.1537 95.8393 20.1582 94.9281 25.2265C94.0169 30.2947 90.4966 34.3255 85.6794 36.7817C80.863 39.2375 74.6993 40.1544 68.3215 39.0078Z" fill="#153587" stroke="black" stroke-width="2"/>
<path d="M35.9039 56.274C43.849 54.8456 50.6396 51.1018 55.186 46.1577C59.733 41.213 62.0705 35.0169 60.9453 28.7586C59.8202 22.5003 55.4709 17.5063 49.4864 14.455C43.5027 11.404 35.8333 10.2598 27.8882 11.6882C19.943 13.1166 13.1524 16.8604 8.60603 21.8045C4.05905 26.7493 1.72156 32.9454 2.84669 39.2036C3.97181 45.4619 8.32107 50.4559 14.3056 53.5073C20.2893 56.5583 27.9587 57.7024 35.9039 56.274Z" fill="white" stroke="black" stroke-width="2"/>
<rect width="2.04" height="7.28" transform="matrix(0.989598 -0.14386 0.241343 0.97044 21.168 23.5177)" fill="black"/>
<rect width="2.04" height="7.28" transform="matrix(-0.989598 -0.14386 -0.241343 0.97044 83.832 13.5177)" fill="white"/>
<rect width="2.04" height="7.28" transform="matrix(0.989598 -0.14386 0.241343 0.97044 27.2168 21.7301)" fill="black"/>
<rect width="2.04" height="7.28" transform="matrix(-0.989598 -0.14386 -0.241343 0.97044 77.7832 11.7301)" fill="white"/>
</svg>