<svg width="32" height="32" viewBox="0 0 32 32" fill="none" xmlns="http://www.w3.org/2000/svg">
<path fill-rule="evenodd" clip-rule="evenodd" d="M10.3333 10C10.3333 6.87043 12.8703 4.33337 16 4.33337C19.1296 4.33337 21.6666 6.87043 21.6666 10C21.6666 13.1297 19.1296 15.6667 16 15.6667C12.8703 15.6667 10.3333 13.1297 10.3333 10ZM16 6.33337C13.9749 6.33337 12.3333 7.975 12.3333 10C12.3333 12.0251 13.9749 13.6667 16 13.6667C18.025 13.6667 19.6666 12.0251 19.6666 10C19.6666 7.975 18.025 6.33337 16 6.33337Z" fill="black"/>
<path fill-rule="evenodd" clip-rule="evenodd" d="M10.6666 19.6667C9.00977 19.6667 7.66663 21.0099 7.66663 22.6667V24.2511C7.66663 24.2752 7.68411 24.2958 7.70792 24.2997C13.1996 25.1963 18.8003 25.1963 24.292 24.2997C24.3158 24.2958 24.3333 24.2752 24.3333 24.2511V22.6667C24.3333 21.0099 22.9901 19.6667 21.3333 19.6667H20.8788C20.8437 19.6667 20.8087 19.6723 20.7753 19.6832L19.6213 20.06C17.2682 20.8284 14.7317 20.8284 12.3786 20.06L11.2246 19.6832C11.1912 19.6723 11.1563 19.6667 11.1211 19.6667H10.6666ZM5.66663 22.6667C5.66663 19.9053 7.9052 17.6667 10.6666 17.6667H11.1211C11.3671 17.6667 11.6116 17.7056 11.8454 17.782L12.9994 18.1588C14.9491 18.7954 17.0508 18.7954 19.0005 18.1588L20.1545 17.782C20.3884 17.7056 20.6328 17.6667 20.8788 17.6667H21.3333C24.0947 17.6667 26.3333 19.9053 26.3333 22.6667V24.2511C26.3333 25.2554 25.6054 26.1117 24.6143 26.2735C18.9092 27.205 13.0908 27.205 7.38566 26.2735C6.39447 26.1117 5.66663 25.2554 5.66663 24.2511V22.6667Z" fill="black"/>
</svg>
