<svg width="796" height="503" viewBox="0 0 796 503" fill="none" xmlns="http://www.w3.org/2000/svg">
<path d="M25.8452 222.384C69.4903 120.863 199.672 100.067 290.252 114.033C367.048 125.874 538.468 181.508 532.018 328.308C526.748 448.26 417.181 499.383 269.229 494.067C82.4277 487.356 -36.8674 368.255 25.8452 222.384Z" fill="white" stroke="black" stroke-width="16.494"/>
<path d="M142.42 225.57C141.552 212.014 148.977 193.011 153.709 186.766L163.65 190.18C157.867 201.084 152.921 220.846 153.065 227.319L142.42 225.57Z" fill="black" stroke="black" stroke-width="9.42515"/>
<path d="M190.935 232.043C190.066 218.486 197.492 199.483 202.223 193.238L212.165 196.653C206.381 207.556 201.435 227.319 201.58 233.792L190.935 232.043Z" fill="black" stroke="black" stroke-width="9.42515"/>
<path d="M95.7752 308.718C79.0297 303.888 51.5436 284.501 61.7147 258.275C75.2776 223.302 159.867 271.343 167.287 290.891C165.357 284.169 163.852 269.08 173.288 262.516C185.084 254.31 226.941 266.378 252.341 294.012C277.741 321.646 279.885 346.929 246.067 356.038C239.22 357.883 229.795 356.71 219.044 353.593M219.044 353.593C181.345 342.659 144.053 318.248 121.446 302.7C114.859 321.354 115.017 370.85 145.737 381.42C186.47 395.436 211.073 371.872 219.044 353.593Z" stroke="black" stroke-width="16.494"/>
<path d="M732.047 97.8943C688.37 35.3971 597.593 39.5555 538.414 61.6647C488.24 80.4096 380.335 141.985 405.25 240.284C425.608 320.605 506.718 339.824 605.832 315.534C730.971 284.867 794.805 187.695 732.047 97.8943Z" fill="#153587" stroke="black" stroke-width="16.494"/>
<path d="M654.133 116.289C652.821 107.007 645.141 95.2052 641.069 91.6479L634.83 95.3477C640.265 101.906 646.375 114.568 647.184 118.962L654.133 116.289Z" fill="white" stroke="white" stroke-width="9.42515"/>
<path d="M622.256 127.463C620.944 118.18 613.265 106.379 609.193 102.822L602.953 106.521C608.389 113.08 614.499 125.742 615.308 130.136L622.256 127.463Z" fill="white" stroke="white" stroke-width="9.42515"/>
<path d="M697.3 165.937C707.939 160.327 723.798 143.376 713.251 127.078C699.188 105.345 648.755 149.657 646.478 163.906C646.841 159.093 645.745 148.686 638.449 145.572C629.328 141.679 602.734 155.697 589.44 177.928C576.146 200.159 578.238 217.545 602.367 218.964C607.252 219.251 613.457 217.139 620.285 213.526M620.285 213.526C644.229 200.858 666.01 179.138 679.11 165.465C686.174 177.148 693 210.617 673.721 222.063C648.159 237.24 628.232 224.762 620.285 213.526Z" stroke="white" stroke-width="16.494"/>
</svg>
